<svg xmlns="http://www.w3.org/2000/svg" width="57" height="53" viewBox="0 0 57 53" fill="none" {...rest}>
      <path
        d="M22.99 27.46C22.99 27.46 24.84 23.31 28.12 23.42C31.4 23.53 32.86 27.46 32.86 27.46C32.86 27.46 40.15 31.5 37.68 36.09C35.21 40.68 28.77 38 28.12 37.66C27.47 37.32 22.09 40.46 18.95 36.99C15.81 33.51 20.18 29.81 22.99 27.46Z"
        fill="url(#paint0_linear_62_107)"
      />
      <path
        d="M36.6099 20.52C35.7299 22.38 33.4999 23.18 31.6399 22.29C29.7799 21.4 28.9799 19.18 29.8699 17.32C30.7599 15.46 35.9899 12.4 36.2699 12.53C36.5899 11.86 37.4999 18.65 36.6099 20.52Z"
        fill="url(#paint1_linear_62_107)"
      />
      <path
        d="M42.22 27.76C41.21 29.56 38.93 30.19 37.14 29.18C35.35 28.17 34.71 25.89 35.72 24.1C36.73 22.31 42.17 19.62 42.44 19.77C42.8 19.13 43.23 25.96 42.22 27.76Z"
        fill="url(#paint2_linear_62_107)"
      />
      <path
        d="M20.3 20.52C21.18 22.38 23.41 23.18 25.27 22.29C27.13 21.4 27.93 19.18 27.04 17.32C26.15 15.46 20.92 12.4 20.64 12.53C20.32 11.86 19.41 18.65 20.3 20.52Z"
        fill="url(#paint3_linear_62_107)"
      />
      <path
        d="M14.4599 27.76C15.4699 29.56 17.7499 30.19 19.5399 29.18C21.3399 28.17 21.9699 25.89 20.9599 24.1C19.9499 22.3 14.5099 19.62 14.2399 19.77C13.8799 19.13 13.4499 25.96 14.4599 27.76Z"
        fill="url(#paint4_linear_62_107)"
      />
      <defs>
        <linearGradient id="paint0_linear_62_107" x1="17.87" y1="31.09" x2="38.19" y2="31.09" gradientUnits="userSpaceOnUse">
          <stop stopColor="#F4DA24" />
          <stop offset="0.45" stopColor="#F18D1B" />
          <stop offset="0.54" stopColor="#EF8225" />
          <stop offset="0.69" stopColor="#ED6741" />
          <stop offset="0.9" stopColor="#E83B6E" />
          <stop offset="1" stopColor="#E62388" />
        </linearGradient>
        <linearGradient id="paint1_linear_62_107" x1="30.5881" y1="15.7853" x2="37.3286" y2="18.9817" gradientUnits="userSpaceOnUse">
          <stop stopColor="#F4DA24" />
          <stop offset="0.45" stopColor="#F18D1B" />
          <stop offset="0.54" stopColor="#EF8225" />
          <stop offset="0.69" stopColor="#ED6741" />
          <stop offset="0.9" stopColor="#E83B6E" />
          <stop offset="1" stopColor="#E62388" />
        </linearGradient>
        <linearGradient id="paint2_linear_62_107" x1="36.5532" y1="22.6111" x2="43.0531" y2="26.2721" gradientUnits="userSpaceOnUse">
          <stop stopColor="#F4DA24" />
          <stop offset="0.45" stopColor="#F18D1B" />
          <stop offset="0.54" stopColor="#EF8225" />
          <stop offset="0.69" stopColor="#ED6741" />
          <stop offset="0.9" stopColor="#E83B6E" />
          <stop offset="1" stopColor="#E62388" />
        </linearGradient>
        <linearGradient id="paint3_linear_62_107" x1="26.3165" y1="15.814" x2="19.5669" y2="19.0146" gradientUnits="userSpaceOnUse">
          <stop stopColor="#F4DA24" />
          <stop offset="0.45" stopColor="#F18D1B" />
          <stop offset="0.54" stopColor="#EF8225" />
          <stop offset="0.69" stopColor="#ED6741" />
          <stop offset="0.9" stopColor="#E83B6E" />
          <stop offset="1" stopColor="#E62388" />
        </linearGradient>
        <linearGradient id="paint4_linear_62_107" x1="20.1353" y1="22.6236" x2="13.6354" y2="26.2846" gradientUnits="userSpaceOnUse">
          <stop stopColor="#F4DA24" />
          <stop offset="0.45" stopColor="#F18D1B" />
          <stop offset="0.54" stopColor="#EF8225" />
          <stop offset="0.69" stopColor="#ED6741" />
          <stop offset="0.9" stopColor="#E83B6E" />
          <stop offset="1" stopColor="#E62388" />
        </linearGradient>
      </defs>
    </svg>